<svg xmlns="http://www.w3.org/2000/svg" viewBox="0 0 207.37 41.68"><defs><style>.cls-1,.cls-4{fill:#fff;}.cls-2,.cls-3{fill:#f7ec00;}.cls-3,.cls-4{fill-rule:evenodd;}</style></defs><g id="Capa_2" data-name="Capa 2"><g id="Capa_1-2" data-name="Capa 1"><g id="savisafety-tienda-blkt"><path class="cls-1" d="M52.73,10.45H42.3v3.42h9.94a4.64,4.64,0,0,1,3.16.8,4.11,4.11,0,0,1,.82,3v2.19a4.12,4.12,0,0,1-.82,3,4.64,4.64,0,0,1-3.16.8H42.39a4.63,4.63,0,0,1-3.16-.8,4.12,4.12,0,0,1-.82-3v-.44l3.27-.68V20.6H53V17H43a4.58,4.58,0,0,1-3.14-.8,4.16,4.16,0,0,1-.81-3V11.43a4.2,4.2,0,0,1,.81-3A4.59,4.59,0,0,1,43,7.66h9.05a4.69,4.69,0,0,1,3.09.76A3.59,3.59,0,0,1,56,11.16v.33l-3.28.77Z"/><path class="cls-1" d="M67.05,17.23h3.49L67.1,10.75l0,.09V7.66h2L78.16,23.6H74l-1.92-3.48h-5Zm-3.49,0h3.49v2.89H62L60.13,23.6h-3.7l9-15.94h1.6v3.18Z"/><polygon class="cls-1" points="81.06 23.6 71.85 7.66 76.09 7.66 82.54 19.18 88.69 7.66 92.39 7.66 83.63 23.6 81.06 23.6"/><rect class="cls-1" x="93.39" y="7.66" width="3.71" height="15.94"/><path class="cls-2" d="M113.09,10.45H102.65v3.42h9.94a4.63,4.63,0,0,1,3.16.8,4.11,4.11,0,0,1,.82,3v2.19a4.12,4.12,0,0,1-.82,3,4.63,4.63,0,0,1-3.16.8h-9.84a4.61,4.61,0,0,1-3.16-.8,4.07,4.07,0,0,1-.83-3v-.44l3.27-.68V20.6H113.3V17h-9.94a4.58,4.58,0,0,1-3.14-.8,4.16,4.16,0,0,1-.81-3V11.43a4.2,4.2,0,0,1,.81-3,4.59,4.59,0,0,1,3.14-.79h9a4.69,4.69,0,0,1,3.09.76,3.55,3.55,0,0,1,.86,2.74v.33l-3.27.77Z"/><path class="cls-2" d="M127.4,17.23h3.49l-3.43-6.48-.06.09V7.66h2l9.14,15.94h-4.16l-1.92-3.48h-5Zm-3.49,0h3.49v2.89h-5.07l-1.85,3.48h-3.7l9-15.94h1.6v3.18Z"/><polygon class="cls-2" points="139.75 23.6 139.75 7.66 155.87 7.66 155.87 10.45 143.46 10.45 143.46 14.64 150.17 14.64 150.17 17.55 143.46 17.55 143.46 23.6 139.75 23.6"/><polygon class="cls-2" points="156.57 23.6 156.57 7.66 171.34 7.66 171.34 10.37 160.28 10.37 160.28 13.93 167.64 13.93 167.64 16.64 160.28 16.64 160.28 20.6 171.34 20.6 171.34 23.6 156.57 23.6"/><polygon class="cls-2" points="183.23 10.51 183.23 23.6 179.52 23.6 179.52 10.51 172.21 10.51 172.21 7.66 190.58 7.66 190.58 10.51 183.23 10.51"/><polygon class="cls-2" points="195.38 23.6 195.38 16.46 187.11 7.66 192.05 7.66 197.52 13.78 203.01 7.66 207.37 7.66 199.12 16.38 199.12 23.6 195.38 23.6"/><path class="cls-3" d="M16.17,4.1a2.49,2.49,0,0,1-1.23,4.65v-5a2.5,2.5,0,0,1,1.23.33Zm-1.23,9.56a18.82,18.82,0,0,1,2.94,2.53,13.53,13.53,0,0,0,6.36-4.09A14,14,0,0,0,18,7.43a3.1,3.1,0,0,1-.21.45,3.26,3.26,0,0,1-2.84,1.65Zm0-4.91a2.49,2.49,0,0,1,0-5v5Zm0,.78a3.28,3.28,0,0,1-1.62-.43A3.31,3.31,0,0,1,11.75,7,8.56,8.56,0,0,0,7.38,9.59V12c2.23-1.1,5.1,0,7.56,1.68V9.53ZM7.38,18.31v-5.5a5.41,5.41,0,0,1,1.43-.67,9.84,9.84,0,0,0-1.12,6.47Zm0-8.72V12A5.11,5.11,0,0,0,5.21,14.2,9.4,9.4,0,0,1,7.38,9.59Zm0,3.22c-1.81,1.25-2,3.48,0,5.5Z"/><path class="cls-3" d="M26.05,22.38V17.55a2.49,2.49,0,0,1,1.87,4.56,2.53,2.53,0,0,1-1.87.27Zm0-5.63V9.07a8.43,8.43,0,0,1,1.54,7.76A3.21,3.21,0,0,0,26.05,16.75Zm0-7.68v7.68a3.42,3.42,0,0,0-1.05.39,3.27,3.27,0,0,0-1.16,4.48,2.29,2.29,0,0,0,.28.41,12.91,12.91,0,0,1-2,1.38V15.22c2.72-1.81,4.43-4.43,2.46-7.65a10.71,10.71,0,0,1,1.45,1.5Zm0,8.48a3.06,3.06,0,0,0-.66.27,2.49,2.49,0,0,0,.66,4.56V17.55Zm-3.91,8.22a5.42,5.42,0,0,0,1.12-2.45,8,8,0,0,1-1.12.85v1.6ZM22.14,9a12.26,12.26,0,0,1,2.46,2.76c.53-2.37-.49-4.11-2.46-4.44Zm0-1.68V9a8.23,8.23,0,0,0-2.6-1.42,5.41,5.41,0,0,1,2.6-.26Zm0,7.94v8.19a14.55,14.55,0,0,1-3.67,1.44V17a17.6,17.6,0,0,0,3.67-1.8Zm0,9a10.07,10.07,0,0,1-3.67,1.31v1.07a3,3,0,0,0,3.67-.78v-1.6Zm-3.67,4.07v-.9a5.5,5.5,0,0,0,2.24.35A10.3,10.3,0,0,1,18.47,28.24ZM9.81,21a2.49,2.49,0,0,1,0,4.66V21Zm8.66-4v7.83a14.4,14.4,0,0,1-1.51.28,13.53,13.53,0,0,1-.39-7.54c.62-.15,1.26-.35,1.9-.57Zm0,8.46v1.07a5.06,5.06,0,0,1-1.35-.92q.7,0,1.35-.15Zm0,1.86c-3.81-1.51-3.62-7.52-2.46-11.59a13.82,13.82,0,0,0-6.2-3.31v7.72a3.28,3.28,0,0,1,1.39,5.53,8.43,8.43,0,0,0,7.27,2.55Zm-12-4a2.49,2.49,0,0,1,2.46-2.52,2.44,2.44,0,0,1,.9.16v4.66a2.61,2.61,0,0,1-.84.16,2.5,2.5,0,0,1-2.52-2.46ZM9.81,12.44v7.72a3,3,0,0,0-.91-.11,2.63,2.63,0,0,0-.49,0,14,14,0,0,1,.86-7.75Z"/><rect class="cls-2" x="93.4" y="30.84" width="3.71" height="10.84"/><path class="cls-4" d="M17,0a17,17,0,1,1,0,34V32.88A15.88,15.88,0,0,0,17,1.12Zm0,34A17,17,0,0,1,17,0V1.12a15.88,15.88,0,0,0,0,31.76Z"/><path class="cls-1" d="M105.37,33.59H103v-.87h5.79v.87h-2.4v6.13h-1Z"/><path class="cls-1" d="M111.85,32.72h1v7h-1Z"/><path class="cls-1" d="M122,38.85v.87H117v-7h4.94v.87H118v2.15h3.51v.85H118v2.26Z"/><path class="cls-1" d="M129.67,32.72v7h-.82l-4.2-5.22v5.22h-1v-7h.82l4.2,5.22V32.72Z"/><path class="cls-1" d="M133.77,32.72h2.95a4.3,4.3,0,0,1,2,.44A3.25,3.25,0,0,1,140,34.4a3.71,3.71,0,0,1,0,3.65,3.17,3.17,0,0,1-1.33,1.23,4.17,4.17,0,0,1-2,.44h-2.95Zm2.89,6.13a3.21,3.21,0,0,0,1.49-.33,2.35,2.35,0,0,0,1-.92,2.72,2.72,0,0,0,.35-1.38,2.68,2.68,0,0,0-.35-1.37,2.37,2.37,0,0,0-1-.93,3.21,3.21,0,0,0-1.49-.33h-1.89v5.26Z"/><path class="cls-1" d="M148.49,38h-3.72L144,39.72h-1l3.17-7h1l3.18,7h-1.05Zm-.35-.8-1.51-3.43-1.51,3.43Z"/><path class="cls-1" d="M157.29,39.34A3.46,3.46,0,0,1,156,38.05a3.52,3.52,0,0,1-.48-1.83,3.57,3.57,0,0,1,.48-1.83,3.51,3.51,0,0,1,1.34-1.28,4.1,4.1,0,0,1,3.81,0,3.41,3.41,0,0,1,1.33,1.28,3.52,3.52,0,0,1,.48,1.83,3.56,3.56,0,0,1-.48,1.84,3.41,3.41,0,0,1-1.33,1.28,4.17,4.17,0,0,1-3.81,0Zm3.29-.78a2.49,2.49,0,0,0,1-1,2.81,2.81,0,0,0,0-2.75,2.58,2.58,0,0,0-1-1,2.77,2.77,0,0,0-1.38-.35,2.88,2.88,0,0,0-1.4.35,2.68,2.68,0,0,0-1,1,2.88,2.88,0,0,0,0,2.75,2.58,2.58,0,0,0,1,1,2.77,2.77,0,0,0,1.4.35A2.67,2.67,0,0,0,160.58,38.56Z"/><path class="cls-1" d="M172.46,32.72v7h-.82l-4.2-5.22v5.22h-1v-7h.82l4.2,5.22V32.72Z"/><path class="cls-1" d="M176.56,32.72h1v6.13h3.79v.87h-4.79Z"/><path class="cls-1" d="M184.5,32.72h1v7h-1Z"/><path class="cls-1" d="M195.62,32.72v7h-.82l-4.2-5.22v5.22h-1v-7h.82l4.2,5.22V32.72Z"/><path class="cls-1" d="M204.8,38.85v.87h-5.08v-7h4.94v.87h-3.94v2.15h3.51v.85h-3.51v2.26Z"/></g></g></g></svg>