<svg xmlns="http://www.w3.org/2000/svg" viewBox="0 0 240.29 60.84"><defs><style>.cls-1{fill:#f5eb09;}.cls-1,.cls-5{fill-rule:evenodd;}.cls-2{fill:#020203;}.cls-3{fill:#5e6060;}.cls-4{fill:#000002;}.cls-5{fill:#fff;}.cls-6{fill:#444545;}</style></defs><g id="Capa_2" data-name="Capa 2"><g id="Capa_1-2" data-name="Capa 1"><g id="savisafety-yellow"><path class="cls-1" d="M240.29,60.84H0V0H240.29"/><path class="cls-2" d="M69.43,19.44H59v3.42h9.93a4.61,4.61,0,0,1,3.16.8,4.1,4.1,0,0,1,.83,3v2.19a4.12,4.12,0,0,1-.83,3,4.61,4.61,0,0,1-3.16.8H59.09a4.63,4.63,0,0,1-3.16-.8,4.12,4.12,0,0,1-.82-3v-.44l3.27-.68v1.89H69.64V26H59.71a4.59,4.59,0,0,1-3.14-.79,4.2,4.2,0,0,1-.81-3V20.42a4.16,4.16,0,0,1,.81-3,4.58,4.58,0,0,1,3.14-.8h9a4.72,4.72,0,0,1,3.1.76,3.59,3.59,0,0,1,.86,2.74v.33l-3.28.77Z"/><path class="cls-2" d="M83.75,26.23h3.49L83.8,19.74l0,.1V16.65h2l9.14,15.94H90.69l-1.91-3.48h-5Zm-3.49,0h3.49v2.88H78.68l-1.86,3.48H73.13l9-15.94h1.61v3.19Z"/><polygon class="cls-2" points="97.76 32.59 88.55 16.65 92.78 16.65 99.24 28.17 105.39 16.65 109.08 16.65 100.33 32.59 97.76 32.59"/><rect class="cls-2" x="110.09" y="16.65" width="3.71" height="15.94"/><path class="cls-3" d="M129.78,19.44H119.35v3.42h9.93a4.61,4.61,0,0,1,3.16.8,4.1,4.1,0,0,1,.83,3v2.19a4.12,4.12,0,0,1-.83,3,4.61,4.61,0,0,1-3.16.8h-9.84a4.63,4.63,0,0,1-3.16-.8,4.12,4.12,0,0,1-.82-3v-.44l3.27-.68v1.89H130V26h-9.93a4.59,4.59,0,0,1-3.14-.79,4.2,4.2,0,0,1-.81-3V20.42a4.16,4.16,0,0,1,.81-3,4.58,4.58,0,0,1,3.14-.8h9a4.7,4.7,0,0,1,3.1.76,3.59,3.59,0,0,1,.86,2.74v.33l-3.28.77Z"/><path class="cls-3" d="M144.1,26.23h3.49l-3.44-6.49-.05.1V16.65h2l9.14,15.94H151l-1.91-3.48h-5Zm-3.49,0h3.49v2.88H139l-1.86,3.48h-3.69l9-15.94h1.6v3.19Z"/><polygon class="cls-3" points="156.44 32.59 156.44 16.65 172.56 16.65 172.56 19.44 160.15 19.44 160.15 23.63 166.87 23.63 166.87 26.54 160.15 26.54 160.15 32.59 156.44 32.59"/><polygon class="cls-3" points="173.27 32.59 173.27 16.65 188.03 16.65 188.03 19.36 176.98 19.36 176.98 22.92 184.34 22.92 184.34 25.63 176.98 25.63 176.98 29.59 188.03 29.59 188.03 32.59 173.27 32.59"/><polygon class="cls-3" points="199.93 19.5 199.93 32.59 196.22 32.59 196.22 19.5 188.91 19.5 188.91 16.65 207.27 16.65 207.27 19.5 199.93 19.5"/><polygon class="cls-3" points="212.08 32.59 212.08 25.45 203.8 16.65 208.75 16.65 214.22 22.77 219.71 16.65 224.07 16.65 215.82 25.37 215.82 32.59 212.08 32.59"/><circle class="cls-4" cx="33.33" cy="25.82" r="17.1" transform="translate(-7.39 14.91) rotate(-22.76)"/><path class="cls-5" d="M32.87,13.09a2.49,2.49,0,0,1-1.23,4.65v-5a2.52,2.52,0,0,1,1.23.33Zm-1.23,9.56a19.29,19.29,0,0,1,2.94,2.53,13.51,13.51,0,0,0,6.36-4.08,13.89,13.89,0,0,0-6.25-4.67,3.55,3.55,0,0,1-.21.44,3.27,3.27,0,0,1-2.84,1.65Zm0-4.91a2.53,2.53,0,0,1-1.24-.33,2.49,2.49,0,0,1,1.24-4.65v5Zm0,.78A3.31,3.31,0,0,1,30,18.09,3.27,3.27,0,0,1,28.45,16a8.56,8.56,0,0,0-4.37,2.58V21c2.23-1.1,5.1,0,7.56,1.68V18.52Zm-7.56,8.79V21.8a5.34,5.34,0,0,1,1.42-.67,9.89,9.89,0,0,0-1.11,6.47C24.28,27.51,24.18,27.41,24.08,27.31Zm0-8.73V21a5.11,5.11,0,0,0-2.17,2.22,9.4,9.4,0,0,1,2.17-4.61Zm0,3.22c-1.82,1.25-2,3.48,0,5.51Z"/><path class="cls-5" d="M42.75,31.37V26.54a2.49,2.49,0,1,1,0,4.83Zm0-5.63V18.06a8.46,8.46,0,0,1,1.53,7.76A3.16,3.16,0,0,0,42.75,25.74Zm0-7.68v7.68a3.35,3.35,0,0,0-1.06.4,3.28,3.28,0,0,0-1.16,4.48,4,4,0,0,0,.28.4,12.82,12.82,0,0,1-2,1.38V24.21c2.72-1.81,4.43-4.43,2.46-7.64a10.14,10.14,0,0,1,1.45,1.49Zm0,8.48a2.7,2.7,0,0,0-.66.27,2.49,2.49,0,0,0,.66,4.56V26.54Zm-3.91,8.22A5.53,5.53,0,0,0,40,32.31a8.67,8.67,0,0,1-1.12.85v1.6Zm0-16.81a12,12,0,0,1,2.45,2.76c.54-2.37-.48-4.11-2.45-4.44Zm0-1.68V18a8.27,8.27,0,0,0-2.61-1.42,5.44,5.44,0,0,1,2.61-.26Zm0,7.94V32.4a14.11,14.11,0,0,1-3.68,1.44V26a17.44,17.44,0,0,0,3.68-1.8Zm0,8.95a10.06,10.06,0,0,1-3.68,1.31v1.07a3,3,0,0,0,3.68-.78v-1.6Zm-3.68,4.08v-.91a5.75,5.75,0,0,0,2.25.36A11.51,11.51,0,0,1,35.16,37.24ZM26.51,30a2.49,2.49,0,0,1,0,4.66V30Zm8.65-4v7.83a14.21,14.21,0,0,1-1.5.28,13.53,13.53,0,0,1-.39-7.54A19.13,19.13,0,0,0,35.16,26Zm0,8.46v1.07a5.23,5.23,0,0,1-1.35-.92,13.26,13.26,0,0,0,1.35-.15Zm0,1.86c-3.8-1.51-3.62-7.52-2.45-11.58a13.74,13.74,0,0,0-6.2-3.32v7.72a3.28,3.28,0,0,1,1.39,5.53,8.44,8.44,0,0,0,7.26,2.56Zm-12-4A2.48,2.48,0,0,1,26.51,30v4.66a2.66,2.66,0,0,1-.84.16,2.49,2.49,0,0,1-2.52-2.46Zm3.36-10.91v7.72A3.07,3.07,0,0,0,25.6,29a2.81,2.81,0,0,0-.5,0A13.9,13.9,0,0,1,26,21.33Z"/><rect class="cls-6" x="110.09" y="39.83" width="3.71" height="10.84"/><path class="cls-6" d="M122.07,42.59h-2.4v-.87h5.79v.87h-2.4v6.13h-1Z"/><path class="cls-6" d="M128.55,41.72h1v7h-1Z"/><path class="cls-6" d="M138.73,47.85v.87h-5.08v-7h4.94v.87h-3.94v2.14h3.51v.86h-3.51v2.26Z"/><path class="cls-6" d="M146.37,41.72v7h-.82l-4.2-5.22v5.22h-1v-7h.82l4.2,5.21V41.72Z"/><path class="cls-6" d="M150.47,41.72h2.95a4.2,4.2,0,0,1,2,.44,3.23,3.23,0,0,1,1.33,1.23,3.71,3.71,0,0,1,0,3.65,3.23,3.23,0,0,1-1.33,1.23,4.21,4.21,0,0,1-2,.45h-2.95Zm2.89,6.13a3.37,3.37,0,0,0,1.49-.33,2.43,2.43,0,0,0,1-.93,2.88,2.88,0,0,0,0-2.75,2.41,2.41,0,0,0-1-.92,3.24,3.24,0,0,0-1.49-.33h-1.89v5.26Z"/><path class="cls-6" d="M165.19,47h-3.72l-.77,1.75h-1l3.17-7h1l3.18,7h-1Zm-.35-.8-1.51-3.44-1.51,3.44Z"/><path class="cls-6" d="M174,48.33a3.44,3.44,0,0,1-1.34-1.28,3.57,3.57,0,0,1-.48-1.83,3.52,3.52,0,0,1,.48-1.83A3.4,3.4,0,0,1,174,42.1a4.17,4.17,0,0,1,3.81,0,3.48,3.48,0,0,1,1.33,1.28,3.75,3.75,0,0,1,0,3.67,3.48,3.48,0,0,1-1.33,1.28,4.1,4.1,0,0,1-3.81,0Zm3.29-.77a2.58,2.58,0,0,0,1-1,2.81,2.81,0,0,0,0-2.75,2.49,2.49,0,0,0-1-1,2.68,2.68,0,0,0-1.38-.36,2.75,2.75,0,0,0-1.4.36,2.58,2.58,0,0,0-1,1,2.88,2.88,0,0,0,0,2.75,2.68,2.68,0,0,0,1,1,2.85,2.85,0,0,0,1.4.35A2.77,2.77,0,0,0,177.28,47.56Z"/><path class="cls-6" d="M189.16,41.72v7h-.82l-4.2-5.22v5.22h-1v-7H184l4.2,5.21V41.72Z"/><path class="cls-6" d="M193.26,41.72h1v6.13h3.79v.87h-4.79Z"/><path class="cls-6" d="M201.2,41.72h1v7h-1Z"/><path class="cls-6" d="M212.32,41.72v7h-.82l-4.2-5.22v5.22h-1v-7h.82l4.2,5.21V41.72Z"/><path class="cls-6" d="M221.5,47.85v.87h-5.08v-7h4.94v.87h-3.94v2.14h3.51v.86h-3.51v2.26Z"/></g></g></g></svg>