<svg xmlns="http://www.w3.org/2000/svg" viewBox="0 0 207.84 41.95"><defs><style>.cls-1{fill:#020203;}.cls-2{fill:#5e6060;}.cls-3{fill:#000002;}.cls-4{fill:#fff;fill-rule:evenodd;}.cls-5{fill:#444545;}</style></defs><g id="Capa_2" data-name="Capa 2"><g id="Capa_1-2" data-name="Capa 1"><g id="savisafety-tienda-ylwt"><path class="cls-1" d="M53.2,10.71H42.77v3.43H52.7a4.62,4.62,0,0,1,3.16.79,4.15,4.15,0,0,1,.83,3V20.1a4.13,4.13,0,0,1-.83,3,4.62,4.62,0,0,1-3.16.79H42.86a4.63,4.63,0,0,1-3.16-.79,4.14,4.14,0,0,1-.82-3v-.44L42.15,19v1.88H53.41V17.23H43.48a4.58,4.58,0,0,1-3.14-.8,4.16,4.16,0,0,1-.81-3V11.7a4.2,4.2,0,0,1,.81-3,4.58,4.58,0,0,1,3.14-.8h9a4.71,4.71,0,0,1,3.1.77,3.58,3.58,0,0,1,.86,2.73v.33l-3.28.78Z"/><path class="cls-1" d="M67.52,17.5H71L67.57,11l0,.09V7.92h2l9.14,15.94H74.46l-1.91-3.47h-5ZM64,17.5h3.49v2.89H62.45l-1.86,3.47H56.9l9-15.94h1.61v3.19Z"/><polygon class="cls-1" points="81.53 23.86 72.32 7.92 76.56 7.92 83.01 19.45 89.16 7.92 92.86 7.92 84.09 23.86 81.53 23.86"/><rect class="cls-1" x="93.86" y="7.92" width="3.71" height="15.94"/><path class="cls-2" d="M113.55,10.71H103.12v3.43h9.93a4.62,4.62,0,0,1,3.16.79,4.15,4.15,0,0,1,.83,3V20.1a4.13,4.13,0,0,1-.83,3,4.62,4.62,0,0,1-3.16.79h-9.84a4.63,4.63,0,0,1-3.16-.79,4.14,4.14,0,0,1-.82-3v-.44L102.5,19v1.88h11.26V17.23h-9.93a4.58,4.58,0,0,1-3.14-.8,4.16,4.16,0,0,1-.81-3V11.7a4.2,4.2,0,0,1,.81-3,4.58,4.58,0,0,1,3.14-.8h9a4.7,4.7,0,0,1,3.1.77,3.58,3.58,0,0,1,.86,2.73v.33l-3.28.78Z"/><path class="cls-2" d="M127.87,17.5h3.49L127.92,11l0,.09V7.92h2L139,23.86h-4.17l-1.91-3.47h-5Zm-3.49,0h3.49v2.89H122.8l-1.86,3.47h-3.69l9-15.94h1.6v3.19Z"/><polygon class="cls-2" points="140.21 23.86 140.21 7.92 156.33 7.92 156.33 10.71 143.92 10.71 143.92 14.91 150.64 14.91 150.64 17.82 143.92 17.82 143.92 23.86 140.21 23.86"/><polygon class="cls-2" points="157.04 23.86 157.04 7.92 171.81 7.92 171.81 10.64 160.75 10.64 160.75 14.2 168.11 14.2 168.11 16.91 160.75 16.91 160.75 20.86 171.81 20.86 171.81 23.86 157.04 23.86"/><polygon class="cls-2" points="183.7 10.78 183.7 23.86 179.99 23.86 179.99 10.78 172.68 10.78 172.68 7.92 191.04 7.92 191.04 10.78 183.7 10.78"/><polygon class="cls-2" points="195.85 23.86 195.85 16.73 187.57 7.92 192.52 7.92 197.99 14.05 203.48 7.92 207.84 7.92 199.59 16.64 199.59 23.86 195.85 23.86"/><circle class="cls-3" cx="17.1" cy="17.1" r="17.1" transform="translate(-5.28 7.95) rotate(-22.76)"/><path class="cls-4" d="M16.64,4.37A2.48,2.48,0,0,1,15.41,9V4a2.42,2.42,0,0,1,1.23.33Zm-1.23,9.56a19.29,19.29,0,0,1,2.94,2.53,13.53,13.53,0,0,0,6.36-4.09A14,14,0,0,0,18.46,7.7a4.54,4.54,0,0,1-.21.45A3.27,3.27,0,0,1,15.41,9.8Zm0-4.92a2.42,2.42,0,0,1-1.24-.32A2.49,2.49,0,0,1,15.41,4V9Zm0,.79a3.34,3.34,0,0,1-1.63-.43,3.27,3.27,0,0,1-1.56-2.09A8.49,8.49,0,0,0,7.85,9.86v2.39c2.23-1.1,5.1,0,7.56,1.68V9.8ZM7.85,18.58v-5.5a5.26,5.26,0,0,1,1.43-.67,9.84,9.84,0,0,0-1.12,6.47Zm0-8.72v2.39a5.06,5.06,0,0,0-2.17,2.22A9.4,9.4,0,0,1,7.85,9.86Zm0,3.22c-1.82,1.25-2,3.47,0,5.5Z"/><path class="cls-4" d="M26.52,22.65V17.82a2.49,2.49,0,1,1,0,4.83Zm0-5.63V9.34a8.45,8.45,0,0,1,1.53,7.76A3.16,3.16,0,0,0,26.52,17Zm0-7.68V17a3.1,3.1,0,0,0-1.06.39,3.29,3.29,0,0,0-1.16,4.48,4.21,4.21,0,0,0,.28.41,12.82,12.82,0,0,1-2,1.38V15.49c2.72-1.81,4.43-4.43,2.46-7.65a10.71,10.71,0,0,1,1.45,1.5Zm0,8.48a2.36,2.36,0,0,0-.66.27,2.49,2.49,0,0,0,.66,4.56V17.82ZM22.61,26a5.64,5.64,0,0,0,1.12-2.45,7.79,7.79,0,0,1-1.12.84V26Zm0-16.81A12,12,0,0,1,25.06,12c.54-2.37-.48-4.11-2.45-4.44Zm0-1.68V9.23A8.3,8.3,0,0,0,20,7.8a5.55,5.55,0,0,1,2.61-.25Zm0,7.94v8.19a14.47,14.47,0,0,1-3.68,1.44V17.28a16.94,16.94,0,0,0,3.68-1.79Zm0,8.94a9.71,9.71,0,0,1-3.68,1.31v1.07A3,3,0,0,0,22.61,26V24.43Zm-3.68,4.08v-.9a5.58,5.58,0,0,0,2.25.35A10.24,10.24,0,0,1,18.93,28.51Zm-8.65-7.25a2.49,2.49,0,0,1,0,4.66V21.26Zm8.65-4v7.84c-.48.11-1,.21-1.5.28A13.56,13.56,0,0,1,17,17.85a19.13,19.13,0,0,0,1.89-.57Zm0,8.46v1.07a5.17,5.17,0,0,1-1.35-.91,13.16,13.16,0,0,0,1.35-.16Zm0,1.87c-3.8-1.52-3.62-7.52-2.45-11.59a13.82,13.82,0,0,0-6.2-3.31v7.72A3.27,3.27,0,0,1,11.67,26a8.39,8.39,0,0,0,7.26,2.56Zm-12-4a2.48,2.48,0,0,1,3.36-2.36v4.66a2.4,2.4,0,0,1-.84.15,2.48,2.48,0,0,1-2.52-2.45Zm3.36-10.91v7.72a3.44,3.44,0,0,0-.91-.12,4.23,4.23,0,0,0-.5.05,14,14,0,0,1,.87-7.76Z"/><rect class="cls-5" x="93.86" y="31.11" width="3.71" height="10.84"/><path class="cls-5" d="M105.84,33.86h-2.4V33h5.79v.87h-2.4V40h-1Z"/><path class="cls-5" d="M112.32,33h1v7h-1Z"/><path class="cls-5" d="M122.5,39.12V40h-5.08V33h4.94v.87h-3.94V36h3.51v.85h-3.51v2.26Z"/><path class="cls-5" d="M130.14,33v7h-.82l-4.2-5.22V40h-1V33h.82l4.2,5.22V33Z"/><path class="cls-5" d="M134.24,33h2.95a4.33,4.33,0,0,1,2,.44,3.32,3.32,0,0,1,1.33,1.24,3.71,3.71,0,0,1,0,3.65,3.23,3.23,0,0,1-1.33,1.23,4.2,4.2,0,0,1-2,.44h-2.95Zm2.89,6.13a3.24,3.24,0,0,0,1.49-.33,2.47,2.47,0,0,0,1-.92,2.72,2.72,0,0,0,.35-1.38,2.66,2.66,0,0,0-.35-1.37,2.43,2.43,0,0,0-1-.93,3.24,3.24,0,0,0-1.49-.33h-1.89v5.26Z"/><path class="cls-5" d="M149,38.24h-3.72L144.47,40h-1l3.17-7h1l3.18,7h-1.05Zm-.35-.8L147.1,34l-1.51,3.43Z"/><path class="cls-5" d="M157.76,39.61a3.46,3.46,0,0,1-1.34-1.29,3.52,3.52,0,0,1-.48-1.83,3.57,3.57,0,0,1,.48-1.83,3.51,3.51,0,0,1,1.34-1.28,4.1,4.1,0,0,1,3.81,0,3.41,3.41,0,0,1,1.33,1.28,3.52,3.52,0,0,1,.48,1.83,3.58,3.58,0,0,1-.48,1.84,3.48,3.48,0,0,1-1.33,1.28,4.17,4.17,0,0,1-3.81,0Zm3.29-.78a2.49,2.49,0,0,0,1-1,2.81,2.81,0,0,0,0-2.75,2.58,2.58,0,0,0-1-1,2.77,2.77,0,0,0-1.38-.35,2.85,2.85,0,0,0-1.4.35,2.68,2.68,0,0,0-1,1,2.88,2.88,0,0,0,0,2.75,2.58,2.58,0,0,0,1,1,2.75,2.75,0,0,0,1.4.35A2.67,2.67,0,0,0,161.05,38.83Z"/><path class="cls-5" d="M172.93,33v7h-.82l-4.2-5.22V40h-1V33h.82l4.2,5.22V33Z"/><path class="cls-5" d="M177,33h1v6.13h3.79V40H177Z"/><path class="cls-5" d="M185,33h1v7h-1Z"/><path class="cls-5" d="M196.09,33v7h-.82l-4.2-5.22V40h-1V33h.82l4.2,5.22V33Z"/><path class="cls-5" d="M205.27,39.12V40h-5.08V33h4.94v.87h-3.94V36h3.51v.85h-3.51v2.26Z"/></g></g></g></svg>