<svg width="33" height="33" viewBox="0 0 33 33" fill="none" xmlns="http://www.w3.org/2000/svg">
<path fill-rule="evenodd" clip-rule="evenodd" d="M7.11191 4.00397C6.83282 4.00336 6.56379 4.03495 6.30814 4.09501C5.95768 3.32258 5.49476 2.6296 4.96826 2.10309C4.07463 1.20946 2.66524 0.857117 0.714233 0.857117V3.99997C1.90608 3.99997 2.59193 4.17144 2.74592 4.32543C3.33988 4.91938 3.85709 6.12621 3.85709 7.14283L3.87288 7.36506L5.41268 18.1436C2.83622 18.2773 0.840258 20.2781 0.716164 22.7792L0.714233 24.4285C0.866381 27.0119 2.8557 28.9991 5.33932 29.1403L5.69607 29.1408C6.34268 30.9729 8.08943 32.2857 10.1428 32.2857C12.1954 32.2857 13.9417 30.9738 14.5888 29.1428H18.2682C18.9154 30.9738 20.6616 32.2857 22.7142 32.2857C25.3179 32.2857 27.4285 30.175 27.4285 27.5714C27.4285 24.9678 25.3179 22.8571 22.7142 22.8571C20.6616 22.8571 18.9154 24.169 18.2682 26H14.5888C13.9417 24.169 12.1954 22.8571 10.1428 22.8571C8.09017 22.8571 6.34394 24.169 5.69677 26H5.42852C4.6271 25.9519 3.90822 25.2337 3.85427 24.3344L3.85709 22.8571C3.89946 22.042 4.61344 21.3281 5.50639 21.2838L8.60861 21.2845L8.63109 21.2857H24.4693L24.7012 21.2121C25.8927 20.834 26.8465 19.9368 27.2981 18.7754L27.4637 18.4477L28.0016 17.3821C28.558 16.279 29.1145 15.174 29.6568 14.0945C30.985 11.4502 31.8203 9.76973 32.0053 9.35706C32.9553 7.23783 31.0309 5.6067 29.0639 5.57197L7.11191 4.00397ZM23.9233 18.1428H8.74869C8.64779 18.1148 8.5709 18.0293 8.55585 17.9229L7.01601 7.144L28.8323 8.7063C28.4506 9.48478 27.7567 10.8752 26.8482 12.6838L26.8255 12.7292C26.3069 13.7615 25.7512 14.8649 25.1955 15.9665L24.6583 17.0308L24.4546 17.4339L24.378 17.6121C24.2959 17.8408 24.1329 18.0287 23.9233 18.1428ZM22.7141 29.1428C23.582 29.1428 24.2856 28.4393 24.2856 27.5714C24.2856 26.7035 23.582 26 22.7141 26C21.8463 26 21.1427 26.7035 21.1427 27.5714C21.1427 28.4393 21.8463 29.1428 22.7141 29.1428ZM11.7142 27.5714C11.7142 28.4393 11.0106 29.1428 10.1428 29.1428C9.27488 29.1428 8.57132 28.4393 8.57132 27.5714C8.57132 26.7035 9.27488 26 10.1428 26C11.0106 26 11.7142 26.7035 11.7142 27.5714Z" fill="white"/>
</svg>
