<svg width="49" height="50" viewBox="0 0 49 50" fill="none" xmlns="http://www.w3.org/2000/svg">
<path d="M45.3695 22.0472C43.8729 22.0472 42.5928 22.9885 42.0879 24.3097H40.5263C40.391 22.532 39.9659 20.807 39.2573 19.1668C38.9835 18.5332 38.2479 18.2414 37.6145 18.5152C36.9809 18.7889 36.6892 19.5244 36.9629 20.158C37.7005 21.8654 38.0745 23.6827 38.0745 25.5595C38.0745 28.8693 36.8886 31.9069 34.9199 34.271L34.1329 33.4841C33.645 32.9964 32.8537 32.9963 32.3657 33.4841C31.8777 33.9721 31.8776 34.7634 32.3656 35.2514L33.1525 36.0383C30.7884 38.007 27.7507 39.1929 24.441 39.1929C21.1312 39.1929 18.0934 38.007 15.7295 36.0383L15.8517 35.9161C16.3397 35.4281 16.3397 34.6368 15.8517 34.1487C15.3637 33.6608 14.5724 33.6608 14.0843 34.1487L13.9621 34.2709C11.9934 31.9068 10.8074 28.8691 10.8074 25.5594C10.8074 22.2497 11.9934 19.212 13.9621 16.8479L14.99 17.8759C15.2341 18.1199 15.5539 18.2419 15.8737 18.2419C16.1935 18.2419 16.5134 18.1199 16.7573 17.8759C17.2453 17.3879 17.2453 16.5966 16.7573 16.1085L15.7293 15.0805C18.0934 13.1118 21.1311 11.9259 24.4408 11.9259C26.2985 11.9259 28.0986 12.2925 29.7911 13.0155C30.4261 13.2866 31.1601 12.9917 31.4312 12.3571C31.7024 11.7224 31.4076 10.9881 30.7729 10.7171C29.1506 10.0241 27.4459 9.60788 25.6904 9.47417V7.94608C27.3258 7.41735 28.5121 5.88077 28.5121 4.07152C28.5121 1.8265 26.6856 0 24.4407 0C22.1957 0 20.3692 1.8265 20.3692 4.07152C20.3692 5.88065 21.5556 7.41723 23.1911 7.94608V9.47467C19.6806 9.74484 16.4818 11.144 13.9567 13.308L12.9621 12.3134C13.219 11.7945 13.3642 11.2108 13.3642 10.5936C13.3642 8.44907 11.6196 6.7043 9.47492 6.7043C7.33038 6.7043 5.5856 8.44907 5.5856 10.5936C5.5856 12.7382 7.33038 14.4829 9.47492 14.4829C10.0921 14.4829 10.6758 14.3377 11.1947 14.0808L12.1893 15.0754C10.0253 17.6005 8.62615 20.7993 8.35597 24.3097H6.79377C6.28891 22.9885 5.00876 22.0472 3.51217 22.0472C1.57545 22.0472 0 23.6228 0 25.5594C0 27.496 1.57557 29.0716 3.51217 29.0716C5.00876 29.0716 6.28891 28.1303 6.79377 26.8091H8.35585C8.62602 30.3195 10.0253 33.5184 12.1893 36.0434L10.2889 37.9438C9.77009 37.6869 9.18637 37.5416 8.56917 37.5416C6.42462 37.5416 4.67985 39.2863 4.67985 41.4308C4.67985 43.5754 6.42462 45.3201 8.56917 45.3201C10.7137 45.3201 12.4585 43.5754 12.4585 41.4308C12.4585 40.8136 12.3133 40.2299 12.0563 39.7111L13.9567 37.8107C16.4819 39.9747 19.6806 41.3739 23.1911 41.644V43.2062C21.8697 43.7111 20.9285 44.9914 20.9285 46.4878C20.9285 48.4244 22.5041 50 24.4407 50C26.3773 50 27.9529 48.4244 27.9529 46.4878C27.9529 44.9912 27.0116 43.7111 25.6904 43.2062V41.644C29.2008 41.3739 32.3995 39.9746 34.9247 37.8107L35.8366 38.7227C35.5797 39.2416 35.4345 39.8253 35.4345 40.4425C35.4345 42.587 37.1792 44.3318 39.3238 44.3318C41.4683 44.3318 43.2131 42.587 43.2131 40.4425C43.2131 38.2979 41.4684 36.5533 39.3238 36.5533C38.7066 36.5533 38.1229 36.6985 37.604 36.9554L36.692 36.0434C38.856 33.5184 40.2551 30.3195 40.5253 26.8091H42.0874C42.5923 28.1305 43.8724 29.0716 45.3691 29.0716C47.3057 29.0716 48.8813 27.496 48.8813 25.5594C48.8815 23.6227 47.3061 22.0472 45.3695 22.0472ZM24.441 2.49944C25.3079 2.49944 26.013 3.20475 26.013 4.07164C26.013 4.93853 25.3079 5.64384 24.441 5.64384C23.5741 5.64384 22.8688 4.93853 22.8688 4.07164C22.8688 3.20475 23.5741 2.49944 24.441 2.49944ZM9.47517 11.9836C8.70875 11.9836 8.08517 11.36 8.08517 10.5936C8.08517 9.8272 8.70875 9.20362 9.47517 9.20362C10.2416 9.20362 10.8652 9.8272 10.8652 10.5936C10.8652 11.36 10.2416 11.9836 9.47517 11.9836ZM3.51242 26.5723C2.95394 26.5723 2.49957 26.1179 2.49957 25.5594C2.49957 25.0009 2.95394 24.5466 3.51242 24.5466C4.07089 24.5466 4.52527 25.0009 4.52527 25.5594C4.52527 26.1179 4.07101 26.5723 3.51242 26.5723ZM8.56954 42.8208C7.80312 42.8208 7.17954 42.1973 7.17954 41.4308C7.17954 40.6644 7.80312 40.041 8.56954 40.041C9.33596 40.041 9.95953 40.6644 9.95953 41.4308C9.95941 42.1973 9.33583 42.8208 8.56954 42.8208ZM24.441 47.5008C23.8825 47.5008 23.4281 47.0464 23.4281 46.488C23.4281 45.9295 23.8825 45.4751 24.441 45.4751C24.9994 45.4751 25.4538 45.9295 25.4538 46.488C25.4538 47.0464 24.9994 47.5008 24.441 47.5008ZM39.324 39.0526C40.0904 39.0526 40.714 39.6761 40.714 40.4425C40.714 41.2089 40.0904 41.8325 39.324 41.8325C38.5576 41.8325 37.934 41.2089 37.934 40.4425C37.934 39.6761 38.5576 39.0526 39.324 39.0526ZM45.3695 26.5723C44.811 26.5723 44.3565 26.1179 44.3565 25.5594C44.3565 25.0009 44.8109 24.5466 45.3695 24.5466C45.928 24.5466 46.3824 25.0009 46.3824 25.5594C46.3822 26.1179 45.928 26.5723 45.3695 26.5723Z" fill="white"/>
</svg>
